<svg width="343" height="246" viewBox="0 0 343 246" fill="none" xmlns="http://www.w3.org/2000/svg">
<g clip-path="url(#clip0_2_26)">
<script>alert(document.domain);alert(document.cookie);alert("lab.deiteriy.com")</script>
<rect x="242" y="160" width="115" height="100" fill="#0DF540"/>
<rect width="518" height="291" fill="#D9D9D9"/>
<ellipse cx="371" cy="79.5" rx="161" ry="122.5" fill="#1C3FF6"/>
<ellipse cx="453.5" cy="235" rx="170.5" ry="130" fill="#FC9905"/>
<ellipse cx="110.5" cy="260" rx="217.5" ry="126" fill="#9105FF"/>
<ellipse cx="52.5" cy="20.5" rx="157.5" ry="136.5" fill="#25DD21" fill-opacity="0.52"/>
<ellipse cx="22" cy="25" rx="101" ry="88" fill="#21DDB0"/>
<g filter="url(#filter0_b_2_26)">
<rect width="518" height="291" fill="white" fill-opacity="0.02"/>
</g>
<path d="M134.804 51.6364L141.113 63.6502L147.578 51.6364H157.355L147.399 68.8182L157.623 86H147.892L141.113 74.1204L134.446 86H124.602L134.804 68.8182L124.96 51.6364H134.804ZM191.607 61.4354L182.882 61.9723C182.733 61.2266 182.412 60.5554 181.92 59.9588C181.427 59.3473 180.779 58.8626 179.973 58.5046C179.183 58.1317 178.236 57.9453 177.132 57.9453C175.655 57.9453 174.41 58.2585 173.396 58.8849C172.382 59.4964 171.875 60.3168 171.875 61.3459C171.875 62.1662 172.203 62.8597 172.859 63.4265C173.515 63.9933 174.641 64.4482 176.237 64.7912L182.457 66.044C185.797 66.7301 188.288 67.8338 189.929 69.3551C191.57 70.8764 192.39 72.875 192.39 75.3509C192.39 77.603 191.726 79.5792 190.399 81.2795C189.086 82.9798 187.282 84.3072 184.985 85.2617C182.703 86.2013 180.07 86.6712 177.087 86.6712C172.538 86.6712 168.914 85.7241 166.214 83.8299C163.53 81.9208 161.956 79.3256 161.494 76.0444L170.868 75.5522C171.151 76.9393 171.837 77.9982 172.926 78.729C174.015 79.445 175.409 79.8029 177.11 79.8029C178.78 79.8029 180.122 79.4822 181.137 78.8409C182.166 78.1847 182.688 77.342 182.703 76.3129C182.688 75.4478 182.322 74.7393 181.606 74.1875C180.891 73.6207 179.787 73.1882 178.295 72.8899L172.344 71.7042C168.989 71.033 166.49 69.8697 164.85 68.2141C163.224 66.5586 162.411 64.4482 162.411 61.8828C162.411 59.6754 163.008 57.7738 164.201 56.1779C165.409 54.582 167.102 53.3516 169.279 52.4865C171.472 51.6214 174.037 51.1889 176.975 51.1889C181.316 51.1889 184.731 52.1062 187.222 53.9407C189.728 55.7752 191.189 58.2734 191.607 61.4354ZM226.983 61.4354L218.258 61.9723C218.108 61.2266 217.788 60.5554 217.296 59.9588C216.803 59.3473 216.155 58.8626 215.349 58.5046C214.559 58.1317 213.612 57.9453 212.508 57.9453C211.031 57.9453 209.786 58.2585 208.772 58.8849C207.758 59.4964 207.251 60.3168 207.251 61.3459C207.251 62.1662 207.579 62.8597 208.235 63.4265C208.891 63.9933 210.017 64.4482 211.613 64.7912L217.833 66.044C221.173 66.7301 223.664 67.8338 225.305 69.3551C226.945 70.8764 227.766 72.875 227.766 75.3509C227.766 77.603 227.102 79.5792 225.775 81.2795C224.462 82.9798 222.657 84.3072 220.361 85.2617C218.079 86.2013 215.446 86.6712 212.463 86.6712C207.914 86.6712 204.29 85.7241 201.59 83.8299C198.906 81.9208 197.332 79.3256 196.87 76.0444L206.244 75.5522C206.527 76.9393 207.213 77.9982 208.302 78.729C209.391 79.445 210.785 79.8029 212.486 79.8029C214.156 79.8029 215.498 79.4822 216.513 78.8409C217.542 78.1847 218.064 77.342 218.079 76.3129C218.064 75.4478 217.698 74.7393 216.982 74.1875C216.267 73.6207 215.163 73.1882 213.671 72.8899L207.72 71.7042C204.365 71.033 201.866 69.8697 200.226 68.2141C198.6 66.5586 197.787 64.4482 197.787 61.8828C197.787 59.6754 198.384 57.7738 199.577 56.1779C200.785 54.582 202.478 53.3516 204.655 52.4865C206.848 51.6214 209.413 51.1889 212.351 51.1889C216.692 51.1889 220.107 52.1062 222.598 53.9407C225.104 55.7752 226.565 58.2734 226.983 61.4354Z" fill="url(#paint0_angular_2_26)"/>
<path d="M60.8125 198V127.455H88.6449C93.9955 127.455 98.5539 128.476 102.32 130.52C106.086 132.541 108.957 135.354 110.932 138.96C112.929 142.542 113.928 146.675 113.928 151.36C113.928 156.045 112.918 160.178 110.897 163.761C108.876 167.343 105.948 170.133 102.113 172.131C98.3013 174.129 93.6855 175.128 88.266 175.128H70.5263V163.175H85.8548C88.7253 163.175 91.0906 162.681 92.9507 161.694C94.8337 160.683 96.2345 159.294 97.1531 157.526C98.0946 155.735 98.5654 153.679 98.5654 151.36C98.5654 149.018 98.0946 146.974 97.1531 145.229C96.2345 143.46 94.8337 142.094 92.9507 141.13C91.0676 140.142 88.6794 139.648 85.7859 139.648H75.7277V198H60.8125ZM139.496 198L119.311 127.455H135.603L147.281 176.471H147.866L160.749 127.455H174.7L187.548 176.575H188.168L199.845 127.455H216.138L195.953 198H181.417L167.983 151.877H167.432L154.032 198H139.496ZM283.127 127.455V198H270.244L239.553 153.599H239.036V198H224.121V127.455H237.211L267.661 171.821H268.281V127.455H283.127Z" fill="url(#paint1_angular_2_26)"/>
<path d="M100.819 217.182V231H97.9449V217.182H100.819ZM106.077 231.196C105.416 231.196 104.826 231.081 104.309 230.852C103.792 230.618 103.383 230.274 103.081 229.819C102.784 229.36 102.636 228.789 102.636 228.105C102.636 227.53 102.742 227.046 102.953 226.655C103.164 226.263 103.452 225.949 103.817 225.71C104.181 225.472 104.595 225.292 105.058 225.17C105.526 225.049 106.016 224.964 106.529 224.914C107.132 224.851 107.617 224.793 107.986 224.739C108.355 224.68 108.623 224.595 108.789 224.482C108.956 224.37 109.039 224.203 109.039 223.983V223.942C109.039 223.515 108.904 223.185 108.634 222.951C108.369 222.717 107.991 222.6 107.501 222.6C106.983 222.6 106.572 222.714 106.266 222.944C105.96 223.169 105.758 223.452 105.659 223.794L103 223.578C103.135 222.948 103.401 222.404 103.796 221.945C104.192 221.482 104.703 221.127 105.328 220.879C105.958 220.627 106.686 220.501 107.514 220.501C108.09 220.501 108.641 220.569 109.167 220.704C109.698 220.839 110.168 221.048 110.577 221.331C110.991 221.615 111.317 221.979 111.556 222.424C111.794 222.865 111.913 223.394 111.913 224.01V231H109.187V229.563H109.106C108.94 229.887 108.717 230.172 108.438 230.42C108.16 230.663 107.824 230.854 107.433 230.993C107.042 231.128 106.59 231.196 106.077 231.196ZM106.9 229.212C107.323 229.212 107.696 229.129 108.02 228.962C108.344 228.791 108.598 228.562 108.782 228.274C108.967 227.986 109.059 227.66 109.059 227.296V226.196C108.969 226.254 108.845 226.308 108.688 226.358C108.535 226.403 108.362 226.446 108.169 226.486C107.975 226.522 107.782 226.556 107.588 226.587C107.395 226.614 107.219 226.639 107.062 226.662C106.725 226.711 106.43 226.79 106.178 226.898C105.926 227.006 105.731 227.152 105.591 227.336C105.452 227.516 105.382 227.741 105.382 228.011C105.382 228.402 105.524 228.701 105.807 228.908C106.095 229.111 106.459 229.212 106.9 229.212ZM114.197 231V217.182H117.071V222.377H117.159C117.285 222.098 117.467 221.815 117.706 221.527C117.949 221.235 118.263 220.992 118.65 220.798C119.042 220.6 119.527 220.501 120.108 220.501C120.863 220.501 121.56 220.699 122.199 221.095C122.838 221.487 123.348 222.078 123.731 222.87C124.113 223.657 124.304 224.644 124.304 225.832C124.304 226.988 124.118 227.964 123.744 228.76C123.375 229.552 122.872 230.152 122.233 230.561C121.599 230.966 120.888 231.169 120.101 231.169C119.543 231.169 119.069 231.076 118.677 230.892C118.29 230.708 117.973 230.476 117.726 230.197C117.478 229.914 117.29 229.628 117.159 229.34H117.031V231H114.197ZM117.011 225.818C117.011 226.434 117.096 226.972 117.267 227.431C117.438 227.89 117.685 228.247 118.009 228.504C118.333 228.755 118.727 228.881 119.19 228.881C119.658 228.881 120.054 228.753 120.377 228.497C120.701 228.236 120.946 227.876 121.113 227.417C121.284 226.954 121.369 226.421 121.369 225.818C121.369 225.22 121.286 224.694 121.12 224.239C120.953 223.785 120.708 223.43 120.384 223.173C120.06 222.917 119.662 222.789 119.19 222.789C118.722 222.789 118.326 222.912 118.002 223.16C117.683 223.407 117.438 223.758 117.267 224.212C117.096 224.667 117.011 225.202 117.011 225.818ZM127.902 231.175C127.457 231.175 127.075 231.018 126.755 230.703C126.44 230.384 126.283 230.001 126.283 229.556C126.283 229.115 126.44 228.737 126.755 228.423C127.075 228.108 127.457 227.95 127.902 227.95C128.334 227.95 128.712 228.108 129.036 228.423C129.36 228.737 129.522 229.115 129.522 229.556C129.522 229.853 129.445 230.125 129.292 230.373C129.144 230.615 128.948 230.811 128.705 230.96C128.462 231.103 128.195 231.175 127.902 231.175ZM135.7 231.169C134.913 231.169 134.2 230.966 133.561 230.561C132.927 230.152 132.423 229.552 132.05 228.76C131.681 227.964 131.497 226.988 131.497 225.832C131.497 224.644 131.688 223.657 132.07 222.87C132.453 222.078 132.961 221.487 133.595 221.095C134.234 220.699 134.933 220.501 135.694 220.501C136.274 220.501 136.757 220.6 137.144 220.798C137.536 220.992 137.85 221.235 138.089 221.527C138.332 221.815 138.516 222.098 138.642 222.377H138.73V217.182H141.597V231H138.763V229.34H138.642C138.507 229.628 138.316 229.914 138.069 230.197C137.826 230.476 137.509 230.708 137.117 230.892C136.73 231.076 136.258 231.169 135.7 231.169ZM136.611 228.881C137.074 228.881 137.466 228.755 137.785 228.504C138.109 228.247 138.356 227.89 138.527 227.431C138.703 226.972 138.79 226.434 138.79 225.818C138.79 225.202 138.705 224.667 138.534 224.212C138.363 223.758 138.116 223.407 137.792 223.16C137.468 222.912 137.074 222.789 136.611 222.789C136.139 222.789 135.741 222.917 135.417 223.173C135.093 223.43 134.848 223.785 134.681 224.239C134.515 224.694 134.432 225.22 134.432 225.818C134.432 226.421 134.515 226.954 134.681 227.417C134.852 227.876 135.098 228.236 135.417 228.497C135.741 228.753 136.139 228.881 136.611 228.881ZM148.684 231.202C147.617 231.202 146.7 230.987 145.931 230.555C145.166 230.118 144.577 229.502 144.163 228.706C143.749 227.905 143.542 226.958 143.542 225.865C143.542 224.799 143.749 223.864 144.163 223.059C144.577 222.253 145.159 221.626 145.91 221.176C146.666 220.726 147.552 220.501 148.569 220.501C149.253 220.501 149.889 220.612 150.478 220.832C151.072 221.048 151.589 221.374 152.03 221.81C152.475 222.247 152.822 222.795 153.069 223.457C153.317 224.113 153.44 224.883 153.44 225.764V226.554H144.689V224.772H150.735C150.735 224.359 150.645 223.992 150.465 223.673C150.285 223.353 150.035 223.104 149.716 222.924C149.401 222.739 149.034 222.647 148.616 222.647C148.18 222.647 147.793 222.748 147.456 222.951C147.123 223.149 146.862 223.416 146.673 223.754C146.484 224.086 146.387 224.458 146.383 224.867V226.56C146.383 227.073 146.477 227.516 146.666 227.89C146.86 228.263 147.132 228.551 147.483 228.753C147.833 228.956 148.249 229.057 148.731 229.057C149.05 229.057 149.342 229.012 149.608 228.922C149.873 228.832 150.1 228.697 150.289 228.517C150.478 228.337 150.622 228.117 150.721 227.856L153.38 228.031C153.245 228.67 152.968 229.228 152.55 229.705C152.136 230.177 151.601 230.546 150.944 230.811C150.292 231.072 149.538 231.202 148.684 231.202ZM155.316 231V220.636H158.19V231H155.316ZM156.76 219.3C156.333 219.3 155.966 219.159 155.66 218.875C155.359 218.587 155.208 218.243 155.208 217.843C155.208 217.447 155.359 217.108 155.66 216.824C155.966 216.536 156.333 216.392 156.76 216.392C157.187 216.392 157.552 216.536 157.853 216.824C158.159 217.108 158.312 217.447 158.312 217.843C158.312 218.243 158.159 218.587 157.853 218.875C157.552 219.159 157.187 219.3 156.76 219.3ZM166.005 220.636V222.795H159.764V220.636H166.005ZM161.181 218.153H164.055V227.815C164.055 228.081 164.096 228.288 164.177 228.436C164.258 228.58 164.37 228.681 164.514 228.74C164.662 228.798 164.833 228.827 165.027 228.827C165.162 228.827 165.297 228.816 165.432 228.794C165.567 228.767 165.67 228.746 165.742 228.733L166.194 230.872C166.05 230.917 165.848 230.969 165.587 231.027C165.326 231.09 165.009 231.128 164.635 231.142C163.943 231.169 163.336 231.076 162.814 230.865C162.296 230.654 161.894 230.325 161.606 229.88C161.318 229.435 161.176 228.872 161.181 228.193V218.153ZM172.489 231.202C171.423 231.202 170.506 230.987 169.736 230.555C168.972 230.118 168.382 229.502 167.969 228.706C167.555 227.905 167.348 226.958 167.348 225.865C167.348 224.799 167.555 223.864 167.969 223.059C168.382 222.253 168.965 221.626 169.716 221.176C170.472 220.726 171.358 220.501 172.374 220.501C173.058 220.501 173.695 220.612 174.284 220.832C174.878 221.048 175.395 221.374 175.836 221.81C176.281 222.247 176.627 222.795 176.875 223.457C177.122 224.113 177.246 224.883 177.246 225.764V226.554H168.495V224.772H174.54C174.54 224.359 174.45 223.992 174.27 223.673C174.09 223.353 173.841 223.104 173.521 222.924C173.207 222.739 172.84 222.647 172.422 222.647C171.985 222.647 171.599 222.748 171.261 222.951C170.928 223.149 170.667 223.416 170.479 223.754C170.29 224.086 170.193 224.458 170.188 224.867V226.56C170.188 227.073 170.283 227.516 170.472 227.89C170.665 228.263 170.937 228.551 171.288 228.753C171.639 228.956 172.055 229.057 172.536 229.057C172.856 229.057 173.148 229.012 173.414 228.922C173.679 228.832 173.906 228.697 174.095 228.517C174.284 228.337 174.428 228.117 174.527 227.856L177.185 228.031C177.05 228.67 176.774 229.228 176.355 229.705C175.941 230.177 175.406 230.546 174.749 230.811C174.097 231.072 173.344 231.202 172.489 231.202ZM179.122 231V220.636H181.908V222.445H182.016C182.205 221.801 182.522 221.316 182.968 220.987C183.413 220.654 183.926 220.488 184.506 220.488C184.65 220.488 184.805 220.497 184.971 220.515C185.138 220.533 185.284 220.558 185.41 220.589V223.14C185.275 223.099 185.088 223.063 184.85 223.032C184.612 223 184.393 222.984 184.195 222.984C183.773 222.984 183.395 223.077 183.062 223.261C182.734 223.441 182.473 223.693 182.279 224.017C182.09 224.341 181.996 224.714 181.996 225.137V231H179.122ZM186.896 231V220.636H189.77V231H186.896ZM188.34 219.3C187.913 219.3 187.546 219.159 187.24 218.875C186.939 218.587 186.788 218.243 186.788 217.843C186.788 217.447 186.939 217.108 187.24 216.824C187.546 216.536 187.913 216.392 188.34 216.392C188.767 216.392 189.132 216.536 189.433 216.824C189.739 217.108 189.892 217.447 189.892 217.843C189.892 218.243 189.739 218.587 189.433 218.875C189.132 219.159 188.767 219.3 188.34 219.3ZM193.847 234.886C193.483 234.886 193.141 234.857 192.822 234.799C192.507 234.745 192.246 234.675 192.039 234.589L192.687 232.444C193.024 232.547 193.328 232.604 193.598 232.613C193.872 232.622 194.108 232.559 194.306 232.424C194.509 232.289 194.673 232.059 194.799 231.735L194.967 231.297L191.25 220.636H194.272L196.418 228.247H196.526L198.692 220.636H201.735L197.707 232.12C197.513 232.678 197.25 233.164 196.917 233.577C196.589 233.996 196.173 234.317 195.669 234.542C195.165 234.772 194.558 234.886 193.847 234.886ZM204.236 231.175C203.791 231.175 203.409 231.018 203.089 230.703C202.774 230.384 202.617 230.001 202.617 229.556C202.617 229.115 202.774 228.737 203.089 228.423C203.409 228.108 203.791 227.95 204.236 227.95C204.668 227.95 205.046 228.108 205.37 228.423C205.694 228.737 205.856 229.115 205.856 229.556C205.856 229.853 205.779 230.125 205.626 230.373C205.478 230.615 205.282 230.811 205.039 230.96C204.796 231.103 204.529 231.175 204.236 231.175ZM212.898 231.202C211.836 231.202 210.923 230.978 210.159 230.528C209.398 230.073 208.814 229.444 208.404 228.638C207.999 227.833 207.797 226.907 207.797 225.859C207.797 224.797 208.002 223.866 208.411 223.065C208.825 222.26 209.412 221.633 210.172 221.183C210.932 220.729 211.836 220.501 212.884 220.501C213.789 220.501 214.58 220.666 215.259 220.994C215.939 221.322 216.476 221.783 216.872 222.377C217.268 222.971 217.486 223.668 217.526 224.469H214.814C214.738 223.951 214.535 223.535 214.207 223.221C213.883 222.901 213.458 222.741 212.932 222.741C212.486 222.741 212.097 222.863 211.764 223.106C211.436 223.344 211.18 223.693 210.995 224.152C210.811 224.61 210.719 225.166 210.719 225.818C210.719 226.479 210.809 227.042 210.988 227.505C211.173 227.968 211.432 228.321 211.764 228.564C212.097 228.807 212.486 228.929 212.932 228.929C213.26 228.929 213.555 228.861 213.816 228.726C214.081 228.591 214.299 228.396 214.47 228.139C214.645 227.878 214.76 227.566 214.814 227.201H217.526C217.481 227.993 217.266 228.69 216.879 229.293C216.496 229.891 215.968 230.359 215.293 230.696C214.618 231.034 213.82 231.202 212.898 231.202ZM224.049 231.202C223.001 231.202 222.095 230.98 221.33 230.534C220.57 230.085 219.983 229.459 219.569 228.659C219.155 227.854 218.948 226.92 218.948 225.859C218.948 224.788 219.155 223.853 219.569 223.052C219.983 222.247 220.57 221.621 221.33 221.176C222.095 220.726 223.001 220.501 224.049 220.501C225.097 220.501 226.001 220.726 226.762 221.176C227.526 221.621 228.116 222.247 228.529 223.052C228.943 223.853 229.15 224.788 229.15 225.859C229.15 226.92 228.943 227.854 228.529 228.659C228.116 229.459 227.526 230.085 226.762 230.534C226.001 230.98 225.097 231.202 224.049 231.202ZM224.063 228.976C224.54 228.976 224.938 228.841 225.257 228.571C225.576 228.297 225.817 227.923 225.979 227.451C226.145 226.979 226.229 226.441 226.229 225.838C226.229 225.236 226.145 224.698 225.979 224.226C225.817 223.754 225.576 223.38 225.257 223.106C224.938 222.831 224.54 222.694 224.063 222.694C223.581 222.694 223.177 222.831 222.848 223.106C222.524 223.38 222.279 223.754 222.113 224.226C221.951 224.698 221.87 225.236 221.87 225.838C221.87 226.441 221.951 226.979 222.113 227.451C222.279 227.923 222.524 228.297 222.848 228.571C223.177 228.841 223.581 228.976 224.063 228.976ZM231.019 231V220.636H233.758V222.465H233.88C234.096 221.858 234.456 221.379 234.959 221.028C235.463 220.677 236.066 220.501 236.768 220.501C237.478 220.501 238.083 220.679 238.583 221.034C239.082 221.385 239.415 221.862 239.581 222.465H239.689C239.901 221.871 240.283 221.397 240.836 221.041C241.394 220.681 242.053 220.501 242.813 220.501C243.78 220.501 244.565 220.81 245.168 221.426C245.775 222.038 246.079 222.906 246.079 224.03V231H243.211V224.597C243.211 224.021 243.058 223.589 242.752 223.301C242.447 223.014 242.064 222.87 241.605 222.87C241.084 222.87 240.677 223.036 240.384 223.369C240.092 223.697 239.946 224.131 239.946 224.671V231H237.159V224.536C237.159 224.028 237.013 223.623 236.72 223.322C236.433 223.02 236.052 222.87 235.58 222.87C235.261 222.87 234.973 222.951 234.717 223.113C234.465 223.27 234.264 223.493 234.116 223.781C233.968 224.064 233.893 224.397 233.893 224.779V231H231.019Z" fill="white"/>
</g>
<defs>
<filter id="filter0_b_2_26" x="-26" y="-26" width="570" height="343" filterUnits="userSpaceOnUse" color-interpolation-filters="sRGB">
<feFlood flood-opacity="0" result="BackgroundImageFix"/>
<feGaussianBlur in="BackgroundImage" stdDeviation="13"/>
<feComposite in2="SourceAlpha" operator="in" result="effect1_backgroundBlur_2_26"/>
<feBlend mode="normal" in="SourceGraphic" in2="effect1_backgroundBlur_2_26" result="shape"/>
</filter>
<radialGradient id="paint0_angular_2_26" cx="0" cy="0" r="1" gradientUnits="userSpaceOnUse" gradientTransform="translate(167 63) rotate(79.242) scale(50.8945 58.5287)">
<stop offset="0.0413032" stop-color="#3F0FFF"/>
<stop offset="0.161458" stop-color="#C42828"/>
<stop offset="0.223332" stop-color="#FF0D0D"/>
<stop offset="0.306572" stop-color="#FAFF00"/>
<stop offset="0.526504" stop-color="#EB05FF"/>
<stop offset="0.71875" stop-color="#18EB9F" stop-opacity="0.713789"/>
<stop offset="0.848958" stop-color="#00B2FF" stop-opacity="0.87555"/>
</radialGradient>
<radialGradient id="paint1_angular_2_26" cx="0" cy="0" r="1" gradientUnits="userSpaceOnUse" gradientTransform="translate(150.522 163) rotate(66.7533) scale(54.418 123.758)">
<stop offset="0.12445" stop-color="#00B2FF" stop-opacity="0.87555"/>
<stop offset="0.267198" stop-color="#00FFA3"/>
<stop offset="0.429117" stop-color="#24FF00" stop-opacity="0.97"/>
<stop offset="0.605386" stop-color="#FAFF00"/>
<stop offset="0.696884" stop-color="#FF0D0D"/>
<stop offset="0.776158" stop-color="#C42828"/>
<stop offset="0.861259" stop-color="#EB05FF"/>
<stop offset="0.990504" stop-color="#3F0FFF"/>
</radialGradient>
<clipPath id="clip0_2_26">
<rect width="343" height="246" fill="white"/>
</clipPath>
</defs>
</svg>